PathFileType	3	(X/Y/Z)	C:\Users\koon_\Desktop\
DataRate	CameraRate	NumFrames	NumMarkers	Units	OrigDataRate	OrigDataStartFrame	OrigNumFrames
100.0	100.0	11	27	mm	100.0	3572	4762	
Frame#	Time	get:LFHD			get:RFHD			get:LBHD			get:RBHD			get:C7			get:T10			get:CLAV			get:STRN			get:RBAK			get:LSHO			get:LUPA			get:LELB			get:LFRA			get:LWRA			get:LWRB			get:LFIN			get:RSHO			get:RUPA			get:RELB			get:RFRA			get:RWRA			get:RWRB			get:RFIN			get:LASI			get:RASI			get:LPSI			get:RPSI			
		X1	Y1	Z1	X2	Y2	Z2	X3	Y3	Z3	X4	Y4	Z4	X5	Y5	Z5	X6	Y6	Z6	X7	Y7	Z7	X8	Y8	Z8	X9	Y9	Z9	X10	Y10	Z10	X11	Y11	Z11	X12	Y12	Z12	X13	Y13	Z13	X14	Y14	Z14	X15	Y15	Z15	X16	Y16	Z16	X17	Y17	Z17	X18	Y18	Z18	X19	Y19	Z19	X20	Y20	Z20	X21	Y21	Z21	X22	Y22	Z22	X23	Y23	Z23	X24	Y24	Z24	X25	Y25	Z25	X26	Y26	Z26	X27	Y27	Z27	
3572	35.71	107.20718	1554.9459	-6.5513349	-33.360012	1549.7843	-18.891478	97.541786	1559.928	-168.37511	-29.745188	1529.726	-184.81171	59.653301	1328.9712	-203.66183	37.721416	1118.5314	-216.54662	28.299006	1282.0583	-2.5510826	17.501442	1088.271	63.582523	-18.376543	1251.0046	-230.90034	172.52327	1331.5557	-112.10329	268.62299	1204.1858	-107.1949	329.82675	1028.2729	-149.65486	366.63293	899.02075	-96.939102	366.73859	816.47821	-77.965553	386.27689	822.88806	-161.14407	442.10364	769.60254	-99.022888	-69.79882	1349.5759	-142.88837	-268.12454	1261.1262	-155.94727	-347.32504	1167.5121	-193.01425	-414.50537	1220.5214	-143.76335	-553.96051	1184.0994	-76.334496	-557.55219	1136.1523	-143.78181	-633.24768	1192.0946	-114.19066	137.17134	887.27594	26.425714	-127.39125	873.66235	-4.8906302	70.653816	944.45715	-195.95813	-17.901472	943.20392	-208.36772
3573	35.72	107.5543	1554.8444	-6.129951	-33.02021	1549.5824	-18.470068	97.887459	1560.0354	-167.94467	-29.340456	1529.7626	-184.44647	60.867367	1328.9257	-203.55101	37.914928	1118.6104	-216.22423	28.716717	1282.1525	-2.3330054	17.161505	1088.3251	63.612103	-17.510521	1251.379	-230.79897	173.18103	1331.2419	-111.63327	268.86526	1203.7023	-106.20712	329.87469	1027.8229	-148.26096	366.71954	898.6593	-95.530396	367.00757	816.27826	-76.394287	386.00623	822.33215	-159.63531	442.23178	769.44525	-97.683945	-68.052734	1350.3347	-142.76218	-267.89304	1268.7592	-157.14102	-350.8866	1178.3088	-193.94865	-415.22064	1235.449	-145.23875	-556.17981	1208.7632	-76.999199	-562.79956	1159.1583	-142.86337	-635.24963	1220.1152	-114.69682	136.95589	887.03058	26.59997	-127.70476	873.64612	-4.9322309	70.520523	944.52417	-195.79462	-18.023695	943.3103	-208.38892
3574	35.73	107.83703	1554.7008	-5.7014246	-32.726772	1549.4128	-18.060135	98.218018	1560.1503	-167.468	-29.022217	1529.8619	-184.03233	61.903816	1328.8866	-203.45891	37.982613	1118.6724	-215.85275	29.099253	1282.2719	-2.1298711	16.837978	1088.4191	63.714451	-16.720413	1251.8549	-230.82491	173.76862	1330.9373	-111.15788	269.03763	1203.2361	-105.25986	329.93234	1027.3983	-147.01845	366.73944	898.37488	-94.224304	367.12787	816.10101	-74.669945	385.73639	821.87299	-158.10905	442.52307	769.39789	-96.369644	-66.321877	1351.1432	-142.66922	-267.42319	1276.511	-158.35873	-354.19843	1189.2408	-194.62784	-415.38281	1250.5889	-146.93233	-557.30627	1233.7407	-77.944084	-567.08752	1182.6285	-142.02333	-636.41925	1248.2537	-115.75078	136.69153	886.98999	26.849243	-127.99177	873.62988	-4.9200234	70.450684	944.60748	-195.79407	-18.258314	943.30573	-208.20323
3575	35.74	108.15432	1554.5371	-5.2216063	-32.390789	1549.2875	-17.588593	98.492287	1560.2533	-167.02783	-28.758167	1530.0363	-183.70125	62.956223	1328.8982	-203.38283	38.074177	1118.8591	-215.58597	29.440601	1282.4091	-1.8889351	16.501444	1088.533	63.910423	-16.02055	1252.4282	-230.94139	174.28735	1330.6592	-110.68224	269.18033	1202.7816	-104.41029	329.98041	1027.0144	-145.76643	366.78409	898.11072	-92.820663	367.32205	815.95886	-73.063354	385.58603	821.45557	-156.58502	442.61392	769.32495	-94.896729	-64.676277	1351.9424	-142.65269	-266.78012	1284.3458	-159.62154	-357.15863	1200.5706	-195.53056	-415.00595	1265.7681	-148.55331	-557.26727	1258.934	-79.162949	-570.33197	1206.6035	-141.49338	-636.0238	1276.6597	-116.95716	136.42578	886.96991	27.067326	-128.22314	873.61151	-4.8003726	70.214874	944.62097	-195.60992	-18.448174	943.33563	-208.08691
3576	35.75	108.42164	1554.4023	-4.7185869	-32.127453	1549.2039	-17.081381	98.673576	1560.3661	-166.56183	-28.531069	1530.1593	-183.27664	63.958832	1329.0145	-203.27116	38.083878	1119.0576	-215.34157	29.743443	1282.5105	-1.63155	16.178123	1088.625	64.063393	-15.462677	1252.9279	-230.79187	174.75037	1330.3776	-110.25528	269.34552	1202.3671	-103.57885	330.03098	1026.7097	-144.68085	366.79132	897.90375	-91.502052	367.40207	815.8291	-71.540764	385.53885	821.13055	-155.14212	442.82166	769.3161	-93.328827	-63.088963	1352.7501	-142.43213	-265.89389	1292.2777	-160.76698	-360.09897	1211.9471	-195.99994	-414.00735	1281.0326	-150.25487	-556.0896	1284.2305	-80.633041	-572.56738	1230.937	-141.18437	-634.34003	1305.0499	-118.18965	136.15659	886.98755	27.322712	-128.498	873.60883	-4.8798895	69.944565	944.65509	-195.50011	-18.710829	943.38348	-207.97511
3577	35.76	108.65694	1554.2201	-4.2981191	-31.901707	1549.0909	-16.559429	98.852707	1560.4558	-166.09621	-28.459244	1530.2367	-182.47853	64.837288	1329.0778	-203.07202	38.054028	1119.277	-215.09703	29.994499	1282.6285	-1.3613627	15.859981	1088.7273	64.289474	-15.024436	1253.5527	-230.81328	175.1631	1330.1427	-109.83237	269.38522	1201.9501	-102.79877	330.02509	1026.4181	-143.62984	366.73468	897.78986	-90.149452	367.34842	815.76135	-70.05777	385.56354	820.8576	-153.62451	442.82407	769.30591	-91.76564	-61.6241	1353.5756	-142.33772	-264.78244	1300.25	-161.84116	-362.89752	1223.4543	-196.17006	-412.47998	1296.4231	-152.06778	-553.75909	1309.4441	-82.390564	-573.69415	1255.5854	-141.22328	-631.33649	1333.5713	-119.57216	135.87836	886.98016	27.48922	-128.75438	873.55414	-4.5853758	69.696266	944.71997	-195.33638	-18.977095	943.44098	-207.87857
3578	35.77	108.82102	1554.0496	-3.8228672	-31.74452	1549.0338	-16.029352	98.966782	1560.5333	-165.58905	-28.367878	1530.4233	-181.98041	65.584572	1329.1644	-202.8627	37.961182	1119.5364	-214.87503	30.191252	1282.8088	-1.1606907	15.479059	1088.8475	64.4478	-14.790258	1254.2129	-230.66583	175.55463	1329.8904	-109.36518	269.37338	1201.6127	-102.13231	329.99429	1026.1965	-142.74023	366.70163	897.68164	-88.981789	367.32413	815.74988	-68.756493	385.64816	820.66943	-152.23853	442.85938	769.32635	-90.138283	-60.120998	1354.5116	-143.00377	-263.45575	1308.2688	-162.90709	-365.09921	1235.4768	-196.79324	-410.42047	1311.876	-154.32657	-550.17889	1334.5544	-84.37339	-573.76941	1280.4624	-141.48785	-627.04309	1362.0632	-121.31876	135.66536	886.98053	27.715637	-129.05852	873.578	-4.6273437	69.467552	944.77118	-195.29532	-19.26371	943.49792	-207.77483
3579	35.78	108.96635	1553.8765	-3.385447	-31.63588	1548.9858	-15.445666	99.023209	1560.593	-165.08592	-28.354294	1530.6025	-181.52599	66.162148	1329.277	-202.63788	37.702744	1119.804	-214.66441	30.365278	1282.937	-0.87767524	15.124897	1088.9539	64.597862	-14.713826	1254.9564	-230.71951	175.7905	1329.6707	-108.99195	269.28226	1201.2811	-101.54924	329.89795	1026.0255	-141.93001	366.59711	897.64929	-87.844795	367.15076	815.71887	-67.406006	385.7377	820.54816	-150.91257	442.80838	769.35345	-88.623993	-58.956734	1355.2584	-142.72302	-261.86398	1316.4956	-163.99136	-366.65842	1247.6919	-197.23254	-407.67523	1327.1497	-155.76437	-545.43188	1359.3756	-86.638145	-572.60626	1305.478	-142.19472	-621.43854	1390.3954	-123.23565	135.4415	886.96387	27.904955	-129.34813	873.5553	-4.5817585	69.190422	944.8476	-195.16971	-19.584965	943.51428	-207.56129
3580	35.79	109.05031	1553.7	-2.8581243	-31.562958	1548.9486	-14.957958	98.990784	1560.6445	-164.60081	-28.455477	1530.8179	-180.95543	66.579803	1329.3395	-202.34425	37.329548	1119.921	-214.28377	30.451353	1283.0809	-0.59467024	14.756041	1089.0546	64.811989	-14.78615	1255.5935	-230.67047	175.96022	1329.469	-108.62226	269.14227	1200.9966	-100.97385	329.75461	1025.8783	-141.194	366.5094	897.63361	-86.815559	367.05005	815.70581	-66.121063	385.80228	820.41669	-149.7256	442.87039	769.41077	-87.209564	-57.892506	1356.0151	-142.48558	-260.00958	1324.3577	-164.3333	-367.81021	1260.2932	-197.87657	-404.35095	1342.2346	-157.1665	-539.44324	1383.8901	-89.185951	-570.37555	1330.4827	-143.03683	-614.57312	1418.0679	-124.98575	135.22237	886.98749	28.078779	-129.65662	873.56146	-4.4259181	68.893661	944.88452	-195.00731	-19.852863	943.57587	-207.46252
3581	35.8	109.08481	1553.5679	-2.3417881	-31.554766	1548.9363	-14.348192	98.868187	1560.6964	-164.09306	-28.576521	1530.9689	-180.31894	66.863708	1329.3752	-202.0759	36.810612	1120.0836	-213.98022	30.431864	1283.2096	-0.30213097	14.337224	1089.1893	64.98423	-15.001691	1256.2689	-230.56955	176.03102	1329.2697	-108.27608	268.95825	1200.7115	-100.45425	329.55963	1025.7358	-140.49567	366.48096	897.61523	-85.863144	367.16171	815.76007	-65.086128	385.80811	820.32458	-148.54773	442.86697	769.44177	-86.001122	-56.947525	1356.7839	-141.83023	-257.8284	1332.4371	-165.12859	-368.57239	1273.374	-199.63493	-400.49298	1357.3416	-159.1902	-532.26337	1408.0212	-91.904099	-566.92627	1355.2813	-144.07063	-606.2063	1445.9771	-127.65354	134.97034	886.97949	28.248848	-129.94275	873.52618	-4.2911959	68.637573	944.95636	-194.9024	-20.21003	943.64722	-207.32912
3582	35.81	109.08934	1553.4352	-1.8351623	-31.564106	1548.9619	-13.701633	98.717552	1560.7505	-163.53801	-28.719406	1531.2013	-179.9026	67.011314	1329.3947	-201.80844	36.154926	1120.26	-213.61842	30.384991	1283.3536	-0.014796171	13.886738	1089.3345	65.165604	-15.380424	1256.8884	-230.47209	176.00618	1329.0889	-107.97366	268.68472	1200.4343	-99.997681	329.36105	1025.594	-139.84715	366.35275	897.59399	-84.923706	367.01132	815.71783	-64.036507	385.77179	820.22766	-147.58768	442.80688	769.43384	-84.887917	-56.094372	1357.5624	-141.5486	-255.42876	1340.3707	-165.9128	-368.81232	1285.8876	-200.07332	-395.86075	1372.0336	-160.98329	-523.94751	1431.6731	-94.981995	-562.23438	1379.833	-145.28482	-596.43237	1472.6117	-129.95624	134.7337	886.97064	28.443363	-130.1507	873.47144	-3.8721113	68.281509	945.01007	-194.71582	-20.505716	943.72742	-207.19153
